# xmcd
#
# Track frame offsets:
#	183
#	15480
#	28460
#	47443
#	63855
#	82070
#	94208
#	113533
#	123355
#	141988
#	152693
#	164860
#	178213
#	189055
#	199693
#	218170
#
# Disc length: 3296 seconds
#
# Revision: 4
# Processed by: cddbd v1.5.2PL0 Copyright (c) Steve Scherf et al.
# Submitted via: audiograbber 1.83.01
#
DISCID=dc0cde10
DTITLE=Various Artist - Country Sunset
DYEAR=1989
DGENRE=Country
TTITLE0=Judds - Have Mercy
TTITLE1=Keith Whitley - The Birmingham Turnaround
TTITLE2=KT Oslin - 80's Ladies
TTITLE3=Ronnie Milsap - It Was Almost Like A Song
TTITLE4=Deborah Allen - Baby I Lied
TTITLE5=Jo-El Sonnier - So Long Baby Goodbye
TTITLE6=Gail Davis - Jagged Edge Of A Broken Heart
TTITLE7=Skeeter Davis - Am I That Easy To Forget
TTITLE8=Earl Thomas Conley - I Need A Good Woman Bad
TTITLE9=Boxcar Willie - Louisiana Saturday Night
TTITLE10=Dolly Parton - Jolene
TTITLE11=Waylon Jennings - Are You Sure Hank Done It This Way
TTITLE12=Don Gibson - Lonesome Number One
TTITLE13=Connie Smith - Once A Day
TTITLE14=Charley Pride - Where Do I Put Her Memory
TTITLE15=Alabama - My Home's In Alabama
EXTD=YEAR: 1989
EXTT0=
EXTT1=
EXTT2=
EXTT3=
EXTT4=
EXTT5=
EXTT6=
EXTT7=
EXTT8=
EXTT9=
EXTT10=
EXTT11=
EXTT12=
EXTT13=
EXTT14=
EXTT15=
PLAYORDER=
